<svg xmlns="http://www.w3.org/2000/svg" viewBox="0 1.25 512.9 510.79" fill-rule="evenodd">
	<defs>
		<filter id="filter">
			<feDropShadow dx="0" dy="0" stdDeviation="4" flood-color="#c7a7ac"/>
		</filter>
		<linearGradient id="grad0" x1="0" y1="0" x2="100%" y2="100%">
			<stop offset="0" stop-color="#a42892"/>
			<stop offset="100%" stop-color="#f3f3f3"/>
		</linearGradient>
	</defs>
	<path fill="url(#grad0)" filter="url(#filter)"
		d="M 234.500 1.566 C 233.400 1.815, 230.025 2.505, 227 3.099 C 219.974 4.478, 206.802 10.048, 196.248 16.103 C 172.484 29.737, 150.648 52.882, 142.038 73.564 C 136.660 86.482, 135.815 91.178, 135.119 112 C 134.428 132.709, 133.981 134.602, 129.177 137.173 C 127.847 137.884, 124.226 138.450, 121.130 138.429 C 111.267 138.363, 104.300 133.119, 101.508 123.660 C 100.832 121.372, 99.879 119.569, 99.390 119.653 C 97.414 119.993, 95.826 127.568, 96.391 133.951 C 97.099 141.942, 100.828 149.881, 106.574 155.627 C 112.115 161.168, 117.839 163.995, 126.456 165.447 C 133.434 166.623, 133.479 166.651, 134.659 170.565 C 136.276 175.924, 136.279 182.236, 134.667 184.441 C 132.844 186.934, 121.423 186.738, 115.610 184.115 C 110.664 181.883, 106.320 177.420, 105.764 174 L 105.357 171.500 104.166 174.347 C 102.545 178.225, 104.183 183.999, 108.202 188.577 C 112.916 193.946, 120.037 197.115, 129.144 197.898 C 133.409 198.265, 137.187 198.854, 137.541 199.208 C 138.374 200.040, 126.015 212.411, 121.760 215.005 C 119.967 216.098, 117.180 216.994, 115.566 216.996 C 110.858 217.002, 104.004 213.120, 101.629 209.102 L 99.500 205.500 99.175 208.909 C 98.653 214.376, 101.569 220.302, 107.574 225.981 L 113.062 231.171 110.417 238.834 C 105.608 252.766, 108.394 266.871, 117.541 274.902 C 121.549 278.421, 122.835 278.429, 120.959 274.924 C 119.256 271.742, 119.496 258.170, 121.330 253.960 L 122.837 250.500 122.930 254 C 123.154 262.394, 126.896 271.666, 132.614 277.994 L 136.115 281.869 133.574 285.708 C 127.147 295.420, 124.556 317.829, 127.534 337.951 L 129.350 350.227 126.925 352.091 C 125.591 353.117, 123.487 353.966, 122.250 353.978 C 121.013 353.990, 120 354.434, 120 354.965 C 120 355.495, 119.046 356.440, 117.879 357.065 C 116.170 357.979, 115.894 357.938, 116.453 356.850 C 116.836 356.107, 116.552 356.214, 115.824 357.087 C 115.096 357.960, 113.495 358.598, 112.267 358.506 C 110.378 358.363, 110.224 358.576, 111.267 359.892 C 111.945 360.748, 110.475 359.819, 108 357.829 C 103.440 354.163, 93.808 350.728, 89 351.055 C 87.625 351.148, 85.713 351.270, 84.750 351.327 C 82.723 351.445, 82.540 353.383, 84.128 357.937 C 85.049 360.578, 84.976 361.452, 83.733 362.695 C 82.185 364.244, 79.362 363.541, 78.931 361.500 C 78.815 360.950, 77.605 359.037, 76.242 357.250 C 74.480 354.941, 72.948 354, 70.949 354 C 69.104 354, 67.935 353.372, 67.556 352.176 C 67.237 351.173, 65.716 349.144, 64.174 347.667 L 61.371 344.981 59.634 350.491 C 58.091 355.388, 57.598 355.998, 55.199 355.985 C 51.559 355.964, 50.763 355.249, 48.533 350 C 45.411 342.655, 45.115 342.496, 41.342 346.153 C 37.499 349.878, 37.182 352.144, 40 355.727 C 41.100 357.126, 42 358.648, 42 359.110 C 42 360.167, 35.619 358.983, 35.167 357.841 C 34.723 356.721, 32 356.757, 32 357.883 C 32 358.369, 31.037 359.019, 29.860 359.326 C 28.028 359.806, 27.803 360.398, 28.297 363.443 C 28.615 365.399, 28.453 367, 27.937 367 C 27.422 367, 27 366.518, 27 365.929 C 27 365.339, 26.293 365.564, 25.429 366.429 C 24.564 367.293, 23.240 368, 22.486 368 C 21.416 368, 17.498 369.915, 13.249 372.515 C 13.111 372.599, 13.391 374.768, 13.870 377.334 C 14.736 381.968, 14.723 382, 11.993 382 C 10.481 382, 7.727 382.617, 5.872 383.370 C 4.017 384.124, 1.938 384.536, 1.250 384.287 C 0.258 383.927, 0 397.075, 0 447.917 L 0 512 61.441 512 C 95.234 512, 123.111 511.629, 123.392 511.175 C 123.672 510.722, 124.652 505.130, 125.570 498.749 C 126.897 489.523, 127.059 484.674, 126.363 475.073 L 125.487 463 130.708 463 C 134.742 463, 136.152 463.416, 136.908 464.827 C 137.446 465.833, 139.027 472.389, 140.422 479.398 C 141.817 486.407, 144.337 496.610, 146.022 502.071 L 149.086 512 155.043 512 C 158.319 512, 161 511.728, 161 511.396 C 161 511.064, 159.852 507.112, 158.449 502.612 L 155.899 494.432 159.844 490.285 C 163.096 486.866, 164.534 483.888, 168.035 473.319 C 173.203 457.716, 176.056 451.880, 183.589 441.500 C 200.653 417.987, 202.473 413.556, 202.489 395.500 C 202.501 382.715, 201.024 375.713, 196.909 369.042 C 194.972 365.901, 194.661 365.743, 193.515 367.310 C 191.937 369.469, 190.427 377.076, 188.516 392.500 C 186.142 411.658, 182.965 421.106, 176.327 428.757 C 172.904 432.702, 149.071 447.118, 141.756 449.668 C 137.893 451.015, 133.585 451.500, 125.500 451.500 C 115.465 451.500, 113.948 451.245, 108.200 448.591 C 95.843 442.885, 89.110 431.858, 88.239 415.900 C 87.461 401.648, 90.720 391.726, 99.587 381.347 C 108.953 370.384, 121.766 362.881, 144.523 355.034 C 150.817 352.864, 156.841 350.620, 157.910 350.048 C 160.394 348.719, 163.345 340.818, 165.399 329.999 C 166.287 325.324, 167.288 320.488, 167.623 319.250 C 168.111 317.452, 167.823 317, 166.189 317 C 163.553 317, 158.997 322.564, 154.346 331.464 C 152.324 335.334, 149.620 339.891, 148.337 341.591 C 145.863 344.870, 139.510 348.843, 138.445 347.778 C 136.729 346.063, 134.838 326.804, 135.324 316 C 136.310 294.090, 141.256 285.415, 155.882 279.943 C 163.620 277.048, 181.645 275.538, 186.140 277.408 C 193.217 280.353, 213.728 283, 229.468 283 C 243.549 283, 245.015 283.176, 249.093 285.361 L 253.500 287.721 258.110 285.415 C 260.646 284.146, 265.260 280.787, 268.363 277.951 C 274.989 271.896, 281.085 260.530, 283.624 249.500 C 284.510 245.650, 285.631 240.880, 286.116 238.899 C 286.600 236.919, 290.260 230.893, 294.248 225.509 L 301.500 215.719 302.132 220.110 C 302.479 222.524, 303.457 226.160, 304.305 228.190 C 307.745 236.420, 319.867 246.153, 333.451 251.591 C 337.053 253.033, 340 254.538, 340 254.935 C 340 255.332, 335.163 256.659, 329.250 257.884 C 301.387 263.654, 289.682 267.485, 283.869 272.737 C 279.500 276.684, 278.540 281, 282.031 281 C 283.149 281, 289.786 278.790, 296.781 276.088 C 303.777 273.387, 312.200 270.487, 315.500 269.644 C 324.129 267.439, 346.946 263, 349.652 263 C 351.728 263, 351.852 263.258, 350.938 265.663 C 349.256 270.086, 351.442 270.922, 355.248 267.310 C 363.644 259.342, 386.858 252.839, 400.721 254.571 C 407.599 255.430, 418.981 261.006, 422.607 265.293 C 428.479 272.235, 434.329 289.845, 438.084 311.882 C 440.910 328.468, 440.311 342.168, 435.960 360.500 C 433.226 372.014, 432.773 376.129, 431.992 396.500 C 431.507 409.150, 431.086 428.837, 431.055 440.250 L 431 461 434.375 461 C 437.355 461, 437.823 460.634, 438.375 457.875 C 438.719 456.156, 439 452.370, 439 449.460 L 439 444.171 446.250 443.497 C 450.238 443.127, 455.075 442.976, 457 443.162 L 460.500 443.500 460.785 453.750 C 461.068 463.929, 461.087 464, 463.560 464 C 465.312 464, 466.338 464.760, 467.025 466.565 C 467.561 467.976, 468 478.785, 468 490.584 L 468 512.038 490.250 511.769 L 512.500 511.500 512.830 501 C 513.012 495.225, 512.844 442.243, 512.458 383.262 L 511.756 276.023 509.128 276.632 C 507.683 276.967, 505.675 278.312, 504.667 279.621 C 503.658 280.929, 502.265 282, 501.572 282 C 500.878 282, 499.481 282.916, 498.468 284.035 C 497.455 285.155, 496.090 285.865, 495.435 285.613 C 494.780 285.362, 493.787 285.613, 493.229 286.171 C 492.108 287.292, 487.406 284.755, 485.271 281.878 C 484.031 280.207, 478.225 279.888, 475 281.314 C 474.175 281.678, 472.531 282.115, 471.348 282.285 C 470.164 282.455, 468.589 283.080, 467.848 283.674 C 467.106 284.269, 465.375 285.095, 464 285.510 C 462.625 285.925, 458.407 288.257, 454.627 290.692 C 450.846 293.127, 447.246 294.922, 446.627 294.682 C 446.007 294.441, 444.219 290.252, 442.652 285.372 C 437.393 268.987, 432.054 260.187, 423.330 253.526 C 419.263 250.420, 418.998 249.999, 421.106 249.990 C 424.722 249.975, 433.122 245.656, 436.477 242.085 C 439.040 239.357, 439.457 238.138, 439.477 233.304 C 439.502 227.156, 438.021 225.464, 436.170 229.526 C 434.297 233.637, 428.849 235.410, 418 235.440 C 411.918 235.456, 407.652 234.989, 406.143 234.140 C 403.024 232.387, 404.197 231.549, 412 229.958 C 421.840 227.952, 435.007 220.971, 439.775 215.233 C 444.968 208.983, 446.292 206.300, 445.581 203.468 C 445.258 202.178, 445.454 200.837, 446.019 200.488 C 447.866 199.347, 452.732 188.622, 454.011 182.872 C 455.594 175.758, 454.868 161.789, 452.645 156.596 C 451.726 154.450, 450.743 152.923, 450.462 153.205 C 450.180 153.487, 449.080 159.641, 448.017 166.882 C 446.298 178.593, 443.939 186, 441.928 186 C 441.576 186, 440.995 182.861, 440.639 179.025 C 439.913 171.210, 436.913 162.246, 433.868 158.791 L 431.848 156.500 432.461 159 C 432.798 160.375, 433.356 163.974, 433.702 166.998 L 434.331 172.496 431.751 169.498 C 430.331 167.849, 428.930 166.739, 428.637 167.031 C 428.344 167.323, 428.591 170.473, 429.186 174.031 C 430.593 182.448, 429.202 187.652, 424.117 192.998 C 422.023 195.199, 419.805 197, 419.189 197 C 418.573 197, 417.772 194.758, 417.408 192.018 C 417.045 189.278, 416.196 186.283, 415.523 185.362 C 414.478 183.934, 414.203 184.407, 413.645 188.594 C 412.440 197.632, 406.357 203.989, 398.905 203.996 C 394.346 204.001, 392 201.501, 392 196.639 C 392 192.006, 393.578 188.213, 401.013 174.982 C 410.886 157.409, 413.154 151.078, 413.724 139.500 C 414.141 131.030, 413.884 128.506, 412.044 123 C 406.725 107.085, 391.529 92.147, 376.011 87.581 C 372.992 86.693, 365.351 85.288, 359.031 84.459 C 344.885 82.605, 341.841 81.786, 335.485 78.120 C 328.007 73.808, 320.820 66.904, 313.062 56.582 C 303.309 43.607, 298.925 39.701, 288.328 34.544 C 276.034 28.563, 274.595 25.637, 280.950 19.548 C 285.073 15.598, 291.010 15.830, 300.414 20.308 C 313.460 26.520, 321.570 34.164, 342.034 59.542 C 347.458 66.269, 353.459 72.739, 355.369 73.919 C 359.107 76.230, 372.230 81.103, 372.903 80.431 C 373.127 80.206, 370.626 76.980, 367.343 73.261 C 364.061 69.543, 355.956 60.200, 349.332 52.500 C 335.161 36.026, 322.897 24.042, 314.085 18.058 C 305.664 12.339, 291.048 5.574, 283 3.669 C 276.688 2.175, 239.013 0.541, 234.500 1.566 M 189.248 33.431 C 164.736 47.584, 145.705 75.810, 140.483 105.760 C 138.802 115.395, 138.489 131, 139.976 131 C 140.513 131, 141.790 129.366, 142.815 127.369 L 144.678 123.739 154.089 123.537 C 162.453 123.357, 165.168 122.773, 178.500 118.286 C 208.400 108.223, 228.606 97.287, 238.361 85.891 C 241.937 81.713, 243.207 76.991, 240.750 77.009 C 240.063 77.014, 235.450 79.928, 230.500 83.484 C 214.570 94.927, 189.560 106.623, 162.268 115.391 C 147.335 120.189, 146.798 120.166, 147.625 114.750 C 147.982 112.412, 149.368 106.675, 150.704 102 C 157.865 76.947, 170.154 59.105, 191.500 42.770 C 197.381 38.270, 198.500 36.941, 198.500 34.457 C 198.500 32.039, 198.044 31.452, 196 31.238 C 194.625 31.094, 191.586 32.081, 189.248 33.431 M 289 54.033 C 289 60.213, 299.009 73.204, 309 79.993 C 318.010 86.115, 341.065 97, 345.023 97 C 345.560 97, 346 96.133, 346 95.074 C 346 93.614, 342.916 91.573, 333.250 86.636 C 312.200 75.884, 305.443 70.760, 295.313 57.865 C 290.408 51.622, 289 50.767, 289 54.033 M 285.536 68.250 C 286.697 72.141, 290.976 78.909, 294.507 82.441 C 302.669 90.602, 316.640 97.761, 340.500 106.009 C 368.885 115.820, 378.425 122.019, 384.652 134.699 C 387.281 140.055, 387.500 141.383, 387.500 152 C 387.500 162.437, 387.247 164.039, 384.768 169.330 C 383.266 172.537, 378.999 179.512, 375.287 184.830 C 366.979 196.731, 365.076 201.906, 365.033 212.712 C 364.993 222.803, 367.409 229.944, 372.863 235.851 C 377.547 240.925, 379.823 241.301, 376.536 236.459 C 372.257 230.153, 370.718 223.696, 371.216 214.140 C 371.727 204.323, 373.715 199.242, 383.401 183 C 398.610 157.497, 397.477 135.403, 380.064 117.904 C 372.061 109.861, 364.055 105.789, 344.993 100.067 C 313.793 90.701, 301.613 84.116, 292.044 71.442 C 287.763 65.771, 284.289 64.067, 285.536 68.250 M 256.154 80.721 C 254.416 85.580, 251.308 92.414, 249.247 95.906 C 244.641 103.711, 229.685 118.176, 214.722 129.296 L 203.931 137.315 206.389 138.927 C 207.741 139.814, 212.039 142.084, 215.940 143.971 C 223.259 147.512, 224.357 149.263, 219.609 149.823 C 216.955 150.135, 217.074 150.334, 223.561 156.450 C 227.239 159.917, 230.047 163.358, 229.801 164.097 C 229.335 165.496, 217.113 168.451, 216.086 167.413 C 215.764 167.087, 216.850 165.689, 218.500 164.305 C 221.411 161.864, 221.426 161.809, 219 162.434 C 211.351 164.404, 210.579 164.303, 208.693 161.084 C 206.684 157.653, 205.798 157.333, 204.070 159.416 C 203.125 160.554, 203.571 161.371, 206.348 163.586 C 209.383 166.008, 209.673 166.624, 208.740 168.671 C 207.378 171.661, 205.186 171.615, 200.595 168.500 C 197.319 166.276, 195 165.377, 195 166.331 C 195 169.037, 199.177 188.496, 200.371 191.350 C 204.173 200.439, 215.352 215.645, 225.888 226.057 C 239.135 239.148, 243.484 241.524, 252.635 240.670 C 262.993 239.702, 271.303 234.720, 284.583 221.518 C 296.263 209.906, 303.146 200.753, 306.155 192.833 C 307.251 189.950, 308.358 182.953, 308.950 175.163 C 309.490 168.069, 310.422 160.079, 311.021 157.405 C 312.013 152.980, 311.842 151.828, 309.107 144.523 C 307.454 140.110, 305.393 133.916, 304.525 130.757 C 303.012 125.248, 302.592 124.752, 294.224 118.610 C 278.678 107.199, 271.314 98.149, 265.244 83 C 260.186 70.374, 259.882 70.298, 256.154 80.721 M 269.305 130.059 C 250.204 139.986, 243.984 143.912, 242.919 146.714 C 241.626 150.113, 242.155 150.429, 246.683 148.964 C 252.897 146.954, 257.968 144.091, 267.500 137.213 C 279.656 128.442, 283.825 126.651, 290.081 127.511 C 296.013 128.327, 296.833 126.603, 291.250 125.053 C 284.280 123.117, 281.397 123.775, 269.305 130.059 M 268.742 140.382 C 260.560 142.172, 254 148.877, 254 155.450 C 254 158.783, 256.577 158.807, 259.179 155.500 C 260.564 153.739, 262.117 153, 264.434 153 C 267.403 153, 267.676 153.243, 267.245 155.500 C 266.819 157.725, 267.103 158, 269.818 158 C 274.517 158, 277.684 156.395, 278.369 153.665 C 278.840 151.789, 279.480 151.313, 280.996 151.709 C 282.098 151.997, 283 152.628, 283 153.110 C 283 153.909, 278.014 157.799, 273.360 160.633 C 268.096 163.838, 279.651 162.679, 286.250 159.340 C 289.363 157.765, 289.865 156.045, 287.250 155.910 C 286.288 155.860, 287.075 155.375, 289 154.831 C 292.371 153.879, 298 149.490, 298 147.813 C 298 147.366, 296.415 147, 294.477 147 L 290.954 147 292.687 144.355 L 294.420 141.710 289.512 142.446 C 285.094 143.108, 284.736 143.023, 285.925 141.591 C 287.097 140.178, 286.756 139.998, 282.872 139.986 C 280.468 139.979, 277.600 139.781, 276.500 139.548 C 275.400 139.314, 271.909 139.689, 268.742 140.382 M 192.775 142.938 C 189.627 145.776, 189.558 145.997, 191 148.615 C 193.040 152.320, 194.429 152.548, 195.857 149.414 C 197.010 146.885, 197.292 146.804, 202.779 147.429 L 208.500 148.080 206 146.006 C 204.625 144.865, 201.824 143.044, 199.775 141.958 L 196.049 139.984 192.775 142.938 M 142.547 149.118 C 135.032 152.165, 122.876 152.698, 115.808 150.289 C 110.628 148.524, 110.199 148.503, 111.027 150.050 C 111.527 150.985, 114.088 152.805, 116.718 154.095 C 120.499 155.949, 123.175 156.447, 129.500 156.470 C 136.423 156.496, 138.307 156.096, 143.500 153.500 C 146.852 151.824, 149.643 149.728, 149.823 148.750 C 150.233 146.532, 148.736 146.608, 142.547 149.118 M 317.655 152.829 C 315.553 155.151, 315.572 155.483, 318.089 160.684 C 319.706 164.023, 320.731 165, 322.621 165 C 325.560 165, 326.647 162.715, 325.209 159.559 C 324.491 157.983, 324.481 156.919, 325.177 156.223 C 325.739 155.661, 325.899 154.256, 325.532 153.101 C 324.681 150.419, 319.983 150.256, 317.655 152.829 M 149.091 158.390 C 148.456 159.155, 145.458 160.842, 142.427 162.140 C 137.491 164.254, 136.972 164.760, 137.440 167 C 137.727 168.375, 138.260 172.964, 138.625 177.197 L 139.288 184.894 142.962 183.019 C 144.983 181.988, 148.293 179.311, 150.318 177.070 C 153.494 173.554, 154 172.328, 154 168.146 C 154 163.098, 152.372 157, 151.025 157 C 150.596 157, 149.726 157.626, 149.091 158.390 M 246 192 C 244.625 192.440, 241.813 192.845, 239.750 192.900 C 235.569 193.011, 234.858 194.656, 237.829 197.345 C 240.444 199.712, 243.155 199.398, 247.291 196.250 C 253.286 191.687, 252.727 189.846, 246 192 M 153.443 201.102 C 151.825 202.815, 146.812 207.111, 142.306 210.648 C 134.310 216.923, 128.472 222.806, 129.359 223.693 C 129.941 224.274, 139.112 219.612, 145.858 215.306 C 152.517 211.056, 156.724 206.532, 157.561 202.722 C 158.541 198.258, 156.784 197.567, 153.443 201.102 M 253.777 203.932 C 248.979 204.270, 244.556 205.044, 243.948 205.652 C 243.270 206.330, 240.460 206.577, 236.671 206.291 C 232.432 205.971, 229.951 206.244, 228.746 207.162 C 227.085 208.429, 227.109 208.738, 229.203 212.957 C 232.306 219.212, 238.128 224.746, 242.461 225.559 C 246.812 226.375, 254.347 224.601, 258.209 221.851 C 261.684 219.377, 271.327 205.338, 270.486 203.978 C 269.849 202.946, 267.835 202.941, 253.777 203.932 M 433.500 210.644 C 429.351 214.054, 424.696 216.338, 416.500 218.986 C 408.643 221.524, 406.297 223, 410.118 223 C 417.399 223, 431.345 216.730, 434.970 211.827 C 437.815 207.979, 437.274 207.543, 433.500 210.644 M 251.500 212.570 C 248.750 213.335, 244.532 213.970, 242.128 213.981 C 238.390 213.997, 237.933 214.214, 238.978 215.474 C 241.204 218.156, 246.528 218.407, 251.378 216.059 C 253.822 214.876, 256.072 213.254, 256.379 212.454 C 256.686 211.654, 256.839 211.040, 256.719 211.089 C 256.598 211.139, 254.250 211.805, 251.500 212.570 M 139.571 248.884 C 136.840 253.303, 138.011 269.760, 141.326 273.552 L 143.500 276.039 149.938 272.973 L 156.376 269.907 153.304 268.039 C 149.191 265.538, 145.283 260.247, 142.512 253.428 C 141.258 250.342, 139.934 248.297, 139.571 248.884 M 355.259 331.850 C 353.123 332.470, 353.090 332.636, 354.537 335.418 C 357.506 341.123, 358.307 346.551, 356.991 352.038 C 356.316 354.852, 355.153 357.388, 354.406 357.675 C 353.659 357.961, 348.200 355.736, 342.274 352.730 C 331.360 347.194, 326.638 345.488, 325.011 346.493 C 324.518 346.798, 325.877 350.749, 328.032 355.274 C 338.368 376.984, 338.465 396.963, 328.335 417.933 C 324.559 425.749, 322.383 428.751, 315.639 435.453 C 303.312 447.704, 290.689 453, 273.816 453 C 255.344 453, 240.893 445.638, 231.824 431.606 C 219.727 412.890, 221.849 389.872, 237.436 370.738 C 243.970 362.716, 252.357 356.636, 265.327 350.519 C 277.311 344.866, 280.478 342.504, 277.570 341.389 C 274.735 340.301, 266.762 341.580, 260.492 344.129 C 248.468 349.018, 235.230 359.581, 227.561 370.406 C 217.700 384.326, 215.220 393.215, 214.283 418 C 213.369 442.188, 213.510 445.017, 216.002 452.506 C 218.919 461.272, 223.661 468.092, 232.532 476.276 C 238.391 481.682, 240.313 484.210, 242.037 488.776 C 244.481 495.249, 244.331 503.626, 241.676 508.947 L 240.153 512 266.085 512 C 291.518 512, 291.994 511.963, 290.803 510.056 C 289.037 507.228, 291.387 505.069, 304.054 497.880 C 309.940 494.539, 317.140 489.721, 320.054 487.172 C 327.108 481.001, 335.278 469.770, 342 457.006 C 345.025 451.261, 349.300 444.740, 351.500 442.514 C 356.382 437.575, 362.881 432.548, 363.536 433.203 C 365.228 434.894, 356.382 470.024, 349.738 488 C 345.753 498.780, 342.094 510.030, 342.012 511.750 C 342.005 511.887, 349.923 512, 359.607 512 C 375.985 512, 377.163 511.878, 376.490 510.250 C 375.807 508.599, 374.116 480.744, 374.107 471 L 374.103 466.500 376.342 472.343 C 377.574 475.557, 379.351 478.617, 380.291 479.143 C 382.423 480.336, 382.425 480.207, 380.491 464 C 378.376 446.272, 377.521 406.576, 378.873 388.876 C 379.647 378.750, 380.941 370.599, 383.082 362.376 C 385.546 352.913, 386.105 348.946, 385.834 342.852 C 385.326 331.407, 384.729 330.975, 369.595 331.100 C 362.943 331.155, 356.492 331.492, 355.259 331.850 M 272.233 379.123 C 264.930 381.231, 257.975 390.963, 258.028 399 C 258.055 403.196, 261.577 409.576, 265.531 412.591 C 270.778 416.593, 280.800 417.244, 287.470 414.014 C 293.536 411.078, 297 405.304, 297 398.130 C 297 391.474, 295.207 387.267, 290.676 383.289 C 285.261 378.534, 279.098 377.142, 272.233 379.123 M 0.471 448 C 0.471 483.475, 0.596 497.988, 0.750 480.250 C 0.903 462.513, 0.903 433.488, 0.750 415.750 C 0.596 398.013, 0.471 412.525, 0.471 448 M 104.309 385.419 C 98.477 388.042, 93.235 399.403, 94.570 406.524 C 95.674 412.407, 98.443 415, 103.622 415 C 109.246 415, 113.116 413.025, 116.698 408.329 C 119.176 405.080, 119.500 403.812, 119.500 397.351 C 119.500 390.851, 119.218 389.764, 116.946 387.492 C 113.817 384.362, 108.570 383.502, 104.309 385.419 M 102.074 391.926 C 99.924 394.076, 100.316 398, 102.682 398 C 107.166 398, 110.174 392.048, 106.418 390.607 C 104.231 389.768, 104.233 389.767, 102.074 391.926 M 275 392 C 272.520 394.480, 272.481 396.137, 274.831 399.040 C 276.231 400.769, 277.275 401.148, 279.265 400.648 C 283.362 399.620, 284.580 393.824, 281.240 391.250 C 278.958 389.492, 277.310 389.690, 275 392"/>
</svg>